<svg xmlns="http://www.w3.org/2000/svg" viewBox="0 0 900 650">
  <defs>
    <filter id="matrixGlow"><feGaussianBlur stdDeviation="4"/><feMerge><feMergeNode/><feMergeNode in="SourceGraphic"/></feMerge></filter>
  </defs>
  <rect x="120" y="80" width="660" height="500" rx="28" fill="#06111f" stroke="#27445f" stroke-width="3"/>
  <g filter="url(#matrixGlow)">
    <g stroke="#1d6f93" stroke-width="2">
      <path d="M230 120 V540 M330 120 V540 M430 120 V540 M530 120 V540 M630 120 V540 M730 120 V540"/>
      <path d="M180 170 H760 M180 250 H760 M180 330 H760 M180 410 H760 M180 490 H760"/>
    </g>
    <g fill="#102b3d" stroke="#35d9ff" stroke-width="2">
      <rect x="185" y="125" width="82" height="62" rx="8"/><rect x="285" y="205" width="82" height="62" rx="8"/>
      <rect x="385" y="285" width="82" height="62" rx="8"/><rect x="485" y="365" width="82" height="62" rx="8"/>
      <rect x="585" y="445" width="82" height="62" rx="8"/><rect x="685" y="125" width="62" height="62" rx="8"/>
    </g>
    <g fill="#ff5f46" opacity=".85">
      <rect x="585" y="205" width="82" height="62" rx="8"/><rect x="285" y="445" width="82" height="62" rx="8"/>
    </g>
  </g>
</svg>
